<?xml version="1.0" encoding="UTF-8" standalone="no"?>
<svg
   enable-background="new 0 0 20 20"
   height="48px"
   viewBox="0 0 20 20"
   width="48px"
   fill="#FFFFFF"
   version="1.1"
   id="svg12"
   sodipodi:docname="white.svg"
   inkscape:version="1.1.2 (0a00cf5339, 2022-02-04, custom)"
   xmlns:inkscape="http://www.inkscape.org/namespaces/inkscape"
   xmlns:sodipodi="http://sodipodi.sourceforge.net/DTD/sodipodi-0.dtd"
   xmlns="http://www.w3.org/2000/svg"
   xmlns:svg="http://www.w3.org/2000/svg">
  <defs
     id="defs16" />
  <sodipodi:namedview
     id="namedview14"
     pagecolor="#ffffff"
     bordercolor="#666666"
     borderopacity="1.0"
     inkscape:pageshadow="2"
     inkscape:pageopacity="0.0"
     inkscape:pagecheckerboard="0"
     showgrid="false"
     inkscape:zoom="9.0104167"
     inkscape:cx="3.7179191"
     inkscape:cy="30.353757"
     inkscape:window-width="1920"
     inkscape:window-height="1056"
     inkscape:window-x="0"
     inkscape:window-y="24"
     inkscape:window-maximized="1"
     inkscape:current-layer="svg12" />
  <g
     id="g4">
    <rect
       fill="none"
       height="20"
       width="20"
       x="0"
       id="rect2" />
  </g>
  <g
     id="g10"
     style="fill:#ffffff"
     transform="matrix(1.3012441,0,0,1.3012441,-2.68713,-2.3618189)">
    <g
       id="g8"
       style="fill:#ffffff">
      <path
         d="M 13,5.39 V 2 H 11.5 V 5.39 C 10.63,5.7 10,6.52 10,7.5 c 0,0.98 0.63,1.8 1.5,2.11 V 13 c 0,1.38 -1.12,2.5 -2.5,2.5 C 7.62,15.5 6.5,14.38 6.5,13 V 11.62 L 7.94,13 9,11.94 5,8 v 5 c 0,2.21 1.79,4 4,4 2.21,0 4,-1.79 4,-4 V 9.61 C 13.87,9.3 14.5,8.48 14.5,7.5 14.5,6.52 13.87,5.7 13,5.39 Z m -0.75,2.86 c -0.41,0 -0.75,-0.34 -0.75,-0.75 0,-0.41 0.34,-0.75 0.75,-0.75 0.41,0 0.75,0.34 0.75,0.75 0,0.41 -0.34,0.75 -0.75,0.75 z"
         id="path6"
         style="fill:#ffffff" />
    </g>
  </g>
</svg>
